# xmcd CD database file
#
# Track frame offsets:
#	150
#	16774
#	31962
#	48317
#	65540
#	81119
#	93542
#	105066
#	121721
#	138397
#	154146
#	164730
#	180152
#
# Disc length: 2616 seconds
#
# Revision: 2
# Processed by: cddbd v1.5.2PL0 Copyright (c) Steve Scherf et al.
# Submitted via: CDex 1.70beta2
#
DISCID=950a360d
DTITLE=Prescott Brown (USA-cty-94) - Already Restless
DYEAR=1994
DGENRE=Country
TTITLE0=Thirty Nine Days
TTITLE1=Broken String Of Pearls
TTITLE2=Heart Of Gold
TTITLE3=Already Restless
TTITLE4=If He's Ever Near
TTITLE5=There Ain't Much You Can Do About Love
TTITLE6=Talkin' Love
TTITLE7=Happy Ever After
TTITLE8=Nothing A Little Love Can't Take Care Of
TTITLE9=The Heart Of Love
TTITLE10=New Year's Eve 1999
TTITLE11=There You Go
TTITLE12=All Or Nothin'
EXTD=YEAR: 1994
EXTT0=
EXTT1=
EXTT2=
EXTT3=
EXTT4=
EXTT5=
EXTT6=
EXTT7=
EXTT8=
EXTT9=
EXTT10=
EXTT11=
EXTT12=
PLAYORDER=
